HIERARCHY
ROOT Hips
{
  OFFSET -21.6994 31.6921 0
  CHANNELS 6 Xposition Yposition Zposition Zrotation Xrotation Yrotation
  JOINT Bip01_Pelvis
  {
    OFFSET 0 0 0
    CHANNELS 6 Xposition Yposition Zposition Zrotation Xrotation Yrotation
    JOINT BN_Tail_01
    {
      OFFSET -7.25226 -1.74978 0
      CHANNELS 6 Xposition Yposition Zposition Zrotation Xrotation Yrotation
      JOINT BN_Tail_02
      {
        OFFSET 15.788 0 0
        CHANNELS 6 Xposition Yposition Zposition Zrotation Xrotation Yrotation
        JOINT BN_Tail_03
        {
          OFFSET 16.0015 0 0
          CHANNELS 6 Xposition Yposition Zposition Zrotation Xrotation Yrotation
          JOINT BN_Tail_04
          {
            OFFSET 16.1689 0 0
            CHANNELS 6 Xposition Yposition Zposition Zrotation Xrotation Yrotation
            End Site
            {
              OFFSET 0 0 0
            }
          }
        }
      }
    }
    JOINT Bip01_Spine
    {
      OFFSET 6.38383 2.70859 0.585432
      CHANNELS 6 Xposition Yposition Zposition Zrotation Xrotation Yrotation
      JOINT BN_Mane_02
      {
        OFFSET 6.12662 8.45826 0
        CHANNELS 6 Xposition Yposition Zposition Zrotation Xrotation Yrotation
        End Site
        {
          OFFSET 0 0 0
        }
      }
      JOINT Bip01_R_Thigh
      {
        OFFSET -7.04074 -2.18223 -5.47025
        CHANNELS 6 Xposition Yposition Zposition Zrotation Xrotation Yrotation
        JOINT Bip01_R_Calf
        {
          OFFSET 13.6591 0 0
          CHANNELS 6 Xposition Yposition Zposition Zrotation Xrotation Yrotation
          JOINT Bip01_R_HorseLink
          {
            OFFSET 9.07516 0 0
            CHANNELS 6 Xposition Yposition Zposition Zrotation Xrotation Yrotation
            JOINT Bip01_R_Foot
            {
              OFFSET 8.13856 0 0
              CHANNELS 6 Xposition Yposition Zposition Zrotation Xrotation Yrotation
              JOINT Bip01_R_Toe0
              {
                OFFSET 3.79737 6.30086 0
                CHANNELS 6 Xposition Yposition Zposition Zrotation Xrotation Yrotation
                JOINT Bip01_R_Toe0Nub
                {
                  OFFSET 0.838764 0 0
                  CHANNELS 6 Xposition Yposition Zposition Zrotation Xrotation Yrotation
                  End Site
                  {
                    OFFSET 0 0 0
                  }
                }
              }
            }
          }
        }
      }
      JOINT Bip01_L_Thigh
      {
        OFFSET -6.18667 -2.14873 5.3508
        CHANNELS 6 Xposition Yposition Zposition Zrotation Xrotation Yrotation
        JOINT Bip01_L_Calf
        {
          OFFSET 13.6591 0 0
          CHANNELS 6 Xposition Yposition Zposition Zrotation Xrotation Yrotation
          JOINT Bip01_L_HorseLink
          {
            OFFSET 9.07515 0 0
            CHANNELS 6 Xposition Yposition Zposition Zrotation Xrotation Yrotation
            JOINT Bip01_L_Foot
            {
              OFFSET 8.13856 0 0
              CHANNELS 6 Xposition Yposition Zposition Zrotation Xrotation Yrotation
              JOINT Bip01_L_Toe0
              {
                OFFSET 3.79737 6.30086 0
                CHANNELS 6 Xposition Yposition Zposition Zrotation Xrotation Yrotation
                JOINT Bip01_L_Toe0Nub
                {
                  OFFSET 0.838764 0 0
                  CHANNELS 6 Xposition Yposition Zposition Zrotation Xrotation Yrotation
                  End Site
                  {
                    OFFSET 0 0 0
                  }
                }
              }
            }
          }
        }
      }
      JOINT Bip01_Spine1
      {
        OFFSET 12.1687 -0.0105438 0
        CHANNELS 6 Xposition Yposition Zposition Zrotation Xrotation Yrotation
        JOINT BN_Mane_R_01
        {
          OFFSET -0.157498 5.09008 -6.54008
          CHANNELS 6 Xposition Yposition Zposition Zrotation Xrotation Yrotation
          End Site
          {
            OFFSET 0 0 0
          }
        }
        JOINT BN_Mane_R_02
        {
          OFFSET -0.1575 5.09007 6.54
          CHANNELS 6 Xposition Yposition Zposition Zrotation Xrotation Yrotation
          End Site
          {
            OFFSET 0 0 0
          }
        }
        JOINT BN_Mane_01
        {
          OFFSET 8.29709 8.50414 0
          CHANNELS 6 Xposition Yposition Zposition Zrotation Xrotation Yrotation
          End Site
          {
            OFFSET 0 0 0
          }
        }
        JOINT Bip01_Spine2
        {
          OFFSET 13.2802 -0.0100708 1.51992e-005
          CHANNELS 6 Xposition Yposition Zposition Zrotation Xrotation Yrotation
          JOINT Bip01_Neck
          {
            OFFSET 12.4891 -6.66662 0
            CHANNELS 6 Xposition Yposition Zposition Zrotation Xrotation Yrotation
            JOINT Bip01_R_Clavicle
            {
              OFFSET -7.4542 -2.82621 -1.17874
              CHANNELS 6 Xposition Yposition Zposition Zrotation Xrotation Yrotation
              JOINT Bip01_R_UpperArm
              {
                OFFSET 13.2557 0 0
                CHANNELS 6 Xposition Yposition Zposition Zrotation Xrotation Yrotation
                JOINT Bip01_R_Forearm
                {
                  OFFSET 12.8897 0 0
                  CHANNELS 6 Xposition Yposition Zposition Zrotation Xrotation Yrotation
                  JOINT Bip01_R_Hand
                  {
                    OFFSET 11.2622 0 0
                    CHANNELS 6 Xposition Yposition Zposition Zrotation Xrotation Yrotation
                    JOINT Bip01_R_Finger0
                    {
                      OFFSET 3.98015 -0.208661 -0.0949803
                      CHANNELS 6 Xposition Yposition Zposition Zrotation Xrotation Yrotation
                      JOINT Bip01_R_Finger0Nub
                      {
                        OFFSET 6.57561 0 0
                        CHANNELS 6 Xposition Yposition Zposition Zrotation Xrotation Yrotation
                        End Site
                        {
                          OFFSET 0 0 0
                        }
                      }
                    }
                  }
                }
              }
            }
            JOINT Bip01_L_Clavicle
            {
              OFFSET -7.4541 -2.82679 1.17708
              CHANNELS 6 Xposition Yposition Zposition Zrotation Xrotation Yrotation
              JOINT Bip01_L_UpperArm
              {
                OFFSET 13.2558 0 0
                CHANNELS 6 Xposition Yposition Zposition Zrotation Xrotation Yrotation
                JOINT Bip01_L_Forearm
                {
                  OFFSET 12.8897 0 0
                  CHANNELS 6 Xposition Yposition Zposition Zrotation Xrotation Yrotation
                  JOINT Bip01_L_Hand
                  {
                    OFFSET 11.2622 0 0
                    CHANNELS 6 Xposition Yposition Zposition Zrotation Xrotation Yrotation
                    JOINT Bip01_L_Finger0
                    {
                      OFFSET 3.98014 -0.20866 0.0949764
                      CHANNELS 6 Xposition Yposition Zposition Zrotation Xrotation Yrotation
                      JOINT Bip01_L_Finger0Nub
                      {
                        OFFSET 6.57562 0 0
                        CHANNELS 6 Xposition Yposition Zposition Zrotation Xrotation Yrotation
                        End Site
                        {
                          OFFSET 0 0 0
                        }
                      }
                    }
                  }
                }
              }
            }
            JOINT Bip01_Neck1
            {
              OFFSET 4.19352 -0.00332451 0
              CHANNELS 6 Xposition Yposition Zposition Zrotation Xrotation Yrotation
              JOINT Bip01_Head
              {
                OFFSET 4.17604 0.298252 0
                CHANNELS 6 Xposition Yposition Zposition Zrotation Xrotation Yrotation
                JOINT BN_Eye_R_01
                {
                  OFFSET 6.53258 -3.90694 -2.55361
                  CHANNELS 6 Xposition Yposition Zposition Zrotation Xrotation Yrotation
                  End Site
                  {
                    OFFSET 0 0 0
                  }
                }
                JOINT BN_Eye_L_01
                {
                  OFFSET 6.5326 -3.90694 2.55371
                  CHANNELS 6 Xposition Yposition Zposition Zrotation Xrotation Yrotation
                  End Site
                  {
                    OFFSET 0 0 0
                  }
                }
                JOINT BN_Ear_R_01
                {
                  OFFSET 1.75934 -4.1584 -4.45634
                  CHANNELS 6 Xposition Yposition Zposition Zrotation Xrotation Yrotation
                  End Site
                  {
                    OFFSET 0 0 0
                  }
                }
                JOINT BN_Ear_L_01
                {
                  OFFSET 1.75933 -4.15841 4.45616
                  CHANNELS 6 Xposition Yposition Zposition Zrotation Xrotation Yrotation
                  End Site
                  {
                    OFFSET 0 0 0
                  }
                }
                JOINT BN_Beard_L_01
                {
                  OFFSET 11.2964 -1.06183 2.32054
                  CHANNELS 6 Xposition Yposition Zposition Zrotation Xrotation Yrotation
                  End Site
                  {
                    OFFSET 0 0 0
                  }
                }
                JOINT BN_Beard_R_01
                {
                  OFFSET 11.2964 -1.06182 -2.32036
                  CHANNELS 6 Xposition Yposition Zposition Zrotation Xrotation Yrotation
                  End Site
                  {
                    OFFSET 0 0 0
                  }
                }
                JOINT BN_Mouth_0
                {
                  OFFSET 1.3149 1.30001 0
                  CHANNELS 6 Xposition Yposition Zposition Zrotation Xrotation Yrotation
                  End Site
                  {
                    OFFSET 0 0 0
                  }
                }
                JOINT Bip01_HeadNub
                {
                  OFFSET 12.6869 0 0
                  CHANNELS 6 Xposition Yposition Zposition Zrotation Xrotation Yrotation
                  End Site
                  {
                    OFFSET 0 0 0
                  }
                }
              }
            }
          }
        }
      }
    }
  }
}
MOTION
Frames:	4
Frame Time:	0.0333333
-21.6994 31.1565 0 -180 -90 -90 0 1.13687e-013 0 -89.9998 -0.387624 -89.9972 -7.25225 -1.74978 -1.45519e-011 -62.1234 -6.3134 174.556 15.788 0 -0.000510216 -21.0701 2.61107 9.51101 16.0015 3.8147e-006 -0.000591278 -27.3362 -5.0495 15.9468 16.1689 3.8147e-006 -0.000581741 -9.065 -11.1107 21.9012 6.42729 2.66537 2.53998e-006 -4.65251 -4.30287e-011 -2.30169e-011 6.12662 8.45826 -4.36557e-011 -88.9944 -0.0323181 -179.967 -6.1898 -3.17814 -5.42738 -110.465 1.52791 177.429 13.6591 -1.90735e-006 -4.76837e-007 -60.933 5.24289e-006 8.622e-006 9.07515 1.90735e-006 0 50.0852 6.32155e-006 -7.49261e-006 8.13855 0 4.76837e-007 -12.9035 0.361622 2.96589 3.79737 6.30086 4.76837e-007 89.9962 -4.93627e-011 1.92824e-011 0.838767 -1.49012e-008 -4.76837e-007 3.87243e-008 2.75101e-012 4.53384e-011 -6.18981 -3.17817 5.42737 -89.4003 15.9029 -178.357 13.6591 3.55271e-015 0 -53.6396 6.97405e-006 9.45501e-006 9.07516 3.55271e-015 0.000555992 51.3856 1.41067e-005 -1.66571e-006 8.13856 -3.55271e-015 0.00077343 -0.520451 -14.3372 -0.943118 3.79775 6.30061 3.55271e-015 89.9972 0.000762724 -30.2982 0.83877 -2.98023e-008 4.76837e-007 179.961 0.00580942 -0.000161999 12.1713 -0.0104256 5.07991e-006 9.79699 9.96796e-013 4.4807e-011 -0.157495 5.09008 -6.54008 -92.7406 -0.022027 -167.965 -0.1575 5.09007 6.54 87.255 -0.000388654 12.0139 8.2971 8.50413 2.91038e-011 -91.651 -0.0331573 -179.968 13.2796 -0.0099659 2.53991e-006 -11.9892 8.95519e-011 6.95951e-011 12.4881 -6.66636 -5.08019e-006 -23.0225 -4.53544e-011 7.1914e-011 -6.16424 -5.05314 -1.17794 -157.025 -51.3379 102.648 13.2557 1.90735e-006 -3.55271e-015 49.4065 47.0087 -107.081 12.8897 9.53674e-007 1.19209e-007 -25.2255 -1.54538e-005 -7.31183e-006 11.2622 2.86102e-006 -2.38419e-007 -118.418 75.5545 98.3996 3.98015 -0.208661 -0.0949784 -3.13094 0.765056 -72.2373 6.57561 2.22044e-016 0 179.96 1.72882e-005 1.73666e-005 -6.16424 -5.05315 1.17789 -157.03 49.0723 -103.15 13.2558 3.55271e-015 3.55271e-015 61.6063 -59.1387 119.545 12.8897 -2.86102e-006 2.38418e-007 -32.3574 3.80667e-006 1.47637e-006 11.2622 -3.55271e-015 0 -130.53 -80.6673 -122.95 3.98015 -0.208658 0.0949745 -12.3295 0.661866 66.0309 6.57562 -4.76837e-007 -4.44089e-016 -3.33977e-007 -8.33468e-009 -2.0324e-008 4.19291 -0.0032177 2.54014e-006 -15.6459 -3.36217e-011 -1.00128e-010 4.17603 0.298258 1.60071e-010 63.8824 0.556162 -0.0994669 6.53258 -3.90694 -2.55361 133.025 18.1401 163.594 6.5326 -3.90695 2.55371 -46.9761 18.1112 -16.4184 1.75934 -4.15839 -4.45634 24.7931 -39.7306 142.462 1.75933 -4.1584 4.45617 -155.196 -39.7317 -37.5282 11.2964 -1.06184 2.32054 151.29 -2.13808 -90 11.2964 -1.06182 -2.32035 -28.7078 -2.13817 89.9962 1.31489 1.30001 -5.55112e-017 -175.737 -0.0434418 -179.998 12.6869 3.8147e-006 0 -2.57073e-007 3.365e-009 -1.28824e-009 
-21.6269 31.0808 0.000133228 89.828 -90 -180 0 1.13687e-013 0 -89.7555 0.32515 -90.1042 -7.25225 -1.74978 -1.45521e-011 -61.7126 -6.35816 174.571 15.788 9.23706e-014 -0.000510216 -20.3333 3.00422 9.18997 16.0015 3.8147e-006 -0.000591278 -27.7255 -5.26925 15.5654 16.1689 3.8147e-006 -0.000581741 -9.54133 -10.4993 22.6995 6.39191 2.74595 -0.0237298 -4.43034 -0.263314 0.0811036 6.12662 8.45826 -4.36521e-011 -88.9928 -0.0368803 179.799 -6.15387 -3.20868 -5.4274 -110.284 1.53457 177.437 13.6591 -1.90735e-006 -4.76837e-007 -61.8762 5.09379e-006 8.70283e-006 9.07515 1.90735e-006 4.44089e-015 50.8031 6.23414e-006 -7.57471e-006 8.13855 -3.55271e-015 4.76837e-007 -12.7126 0.365557 2.97403 3.79737 6.30086 4.76827e-007 89.8551 0.00122822 3.10588e-006 0.838767 -1.49012e-008 -4.76837e-007 3.87243e-008 2.75101e-012 4.53384e-011 -6.16984 -3.25686 5.42692 -89.0642 15.8986 -178.314 13.6591 -3.55271e-015 3.55271e-015 -53.97 -1.18248e-006 1.53872e-005 9.07516 -6.46594e-013 0.000555992 51.5724 1.41023e-005 -1.71224e-006 8.13856 -2.41585e-013 0.00077343 -0.262188 -14.3392 -0.956631 3.79775 6.30061 -2.95088e-010 89.9045 0.000139282 -30.2983 0.83877 -2.98023e-008 4.76837e-007 179.961 0.00580942 -0.000161999 12.1713 -0.0104256 5.07991e-006 10.1882 0.0432412 -0.187053 -0.157495 5.09008 -6.54008 -92.4639 0.0861364 -168.054 -0.1575 5.09007 6.54 87.3645 0.070099 12.2456 8.2971 8.50413 2.90824e-011 -91.7882 -0.0378718 179.711 13.2796 -0.0099659 2.53991e-006 -11.1519 -0.550753 0.221496 12.4881 -6.66636 -5.08019e-006 -24.3678 -0.0136822 -0.00299043 -6.04262 -5.198 -1.17841 -155.686 -51.359 102.644 13.2557 1.90735e-006 7.10543e-015 48.6783 47.0798 -106.804 12.8897 9.53674e-007 1.19209e-007 -26.9128 -1.56255e-005 -6.98217e-006 11.2622 2.86102e-006 -2.38419e-007 -117.62 75.5735 98.3599 3.98015 -0.208661 -0.0949784 -3.13094 0.765036 -72.2373 6.57561 8.88178e-016 -1.24345e-014 179.96 1.72882e-005 1.73667e-005 -6.04239 -5.19862 1.17742 -155.683 49.0528 -103.151 13.2558 0 1.42109e-014 60.4499 -58.3193 118.297 12.8897 -2.86102e-006 2.38418e-007 -36.1589 -2.03724e-006 9.74315e-006 11.2622 1.06581e-014 -1.33227e-015 -127.645 -80.502 -121.916 3.98015 -0.208658 0.0949745 -12.3295 0.661848 66.0308 6.57562 -4.76837e-007 -3.9968e-015 -3.33977e-007 -8.33468e-009 -2.0324e-008 4.19291 -0.0032177 2.54014e-006 -13.194 0.0103891 0.00121118 4.17603 0.298258 1.60105e-010 62.7235 0.861094 0.0216679 6.53258 -3.90694 -2.55361 133.025 18.1401 163.594 6.5326 -3.90695 2.55371 -46.9761 18.1112 -16.4184 1.75934 -4.15839 -4.45634 24.7999 -39.8003 143.022 1.75933 -4.1584 4.45617 -155.188 -39.8015 -36.9663 11.2964 -1.06184 2.32054 151.29 -4.01881 -90.0001 11.2964 -1.06182 -2.32035 -28.9068 -4.80372 89.7124 1.31489 1.30001 1.72196e-013 -175.386 -0.0421295 -179.998 12.6869 3.8147e-006 -2.22045e-016 -2.57073e-007 3.365e-009 -1.28824e-009 
-21.5526 31.0026 0.000248924 -0.358284 -90 90 0 1.13687e-013 0 -89.4653 1.137 -90.2101 -7.25225 -1.74978 -1.45526e-011 -60.7291 -6.46578 174.607 15.788 3.19744e-013 -0.000510216 -18.6522 3.8955 8.46581 16.0015 3.8147e-006 -0.000591278 -28.6291 -5.76431 14.6999 16.1689 3.8147e-006 -0.000581741 -10.4312 -9.41714 24.1405 6.35237 2.83602 -0.0492455 -4.10595 -0.563067 0.156735 6.12662 8.45826 -4.36483e-011 -88.9912 -0.0408619 179.575 -6.11903 -3.23035 -5.42713 -110.117 1.54318 177.435 13.6591 -1.90735e-006 -4.76837e-007 -62.8632 4.9357e-006 8.78488e-006 9.07515 1.90735e-006 4.44089e-015 51.5458 6.14327e-006 -7.65909e-006 8.13855 3.55271e-015 4.76837e-007 -12.4844 0.366871 2.98479 3.79737 6.30086 4.76836e-007 89.7176 0.00240137 1.18356e-005 0.838767 -1.49012e-008 -4.76837e-007 3.87243e-008 2.75101e-012 4.53384e-011 -6.14916 -3.33758 5.42679 -88.7237 15.8946 -178.284 13.6591 -7.10543e-015 -1.77636e-015 -54.2671 -1.26288e-006 1.53801e-005 9.07516 -1.37135e-012 0.000555992 51.7265 6.85058e-006 -7.46969e-006 8.13856 -4.86722e-013 0.00077343 -0.010913 -14.3413 -0.969811 3.79775 6.30061 -6.45382e-010 89.8144 -0.000522746 -30.2986 0.83877 -2.98023e-008 4.76837e-007 179.961 0.00580942 -0.000161999 12.1713 -0.0104256 5.07991e-006 10.5798 0.0909256 -0.370252 -0.157495 5.09008 -6.54008 -92.1941 0.191143 -168.14 -0.1575 5.09007 6.54 87.4709 0.139207 12.4713 8.2971 8.50413 2.89009e-011 -91.9221 -0.0417305 179.398 13.2796 -0.0099659 2.53991e-006 -10.2871 -1.12017 0.469262 12.4881 -6.66636 -5.0802e-006 -26.3103 -0.022993 -0.008892 -5.86305 -5.39957 -1.17896 -153.738 -51.3656 102.649 13.2557 1.90735e-006 -2.13163e-014 47.8824 47.0993 -106.479 12.8897 9.53674e-007 1.19209e-007 -28.7817 -1.97897e-005 5.28299e-007 11.2622 2.86102e-006 -2.38419e-007 -116.675 75.5852 98.2589 3.98015 -0.208661 -0.0949784 -3.13094 0.764974 -72.2373 6.57561 8.65973e-015 1.33227e-015 179.96 1.72882e-005 1.73667e-005 -5.86267 -5.40053 1.17687 -153.743 49.0463 -103.147 13.2558 0 -1.77636e-014 59.3595 -57.5647 117.097 12.8897 -2.86102e-006 2.38419e-007 -39.8637 -2.50993e-006 9.51536e-006 11.2622 2.13163e-014 -9.32587e-015 -124.935 -80.3042 -121.005 3.98015 -0.208658 0.0949745 -12.3295 0.661795 66.0309 6.57562 -4.76837e-007 -7.54951e-015 -3.33977e-007 -8.33468e-009 -2.0324e-008 4.19291 -0.0032177 2.54014e-006 -9.66596 0.0138796 0.00118244 4.17603 0.298258 1.60405e-010 61.4625 1.12868 0.272554 6.53258 -3.90694 -2.55361 133.025 18.1401 163.594 6.5326 -3.90695 2.55371 -46.9761 18.1111 -16.4185 1.75934 -4.15839 -4.45634 24.8074 -39.8676 143.562 1.75933 -4.1584 4.45617 -155.179 -39.8689 -36.4265 11.2964 -1.06184 2.32054 151.29 -5.85176 -90.0002 11.2964 -1.06182 -2.32035 -28.9582 -7.55125 89.0843 1.31489 1.30001 -3.54938e-013 -175.044 -0.0408783 -179.998 12.6869 3.8147e-006 0 -2.57073e-007 3.365e-009 -1.28824e-009 
-21.4732 30.9187 0.000353067 76.8834 -90 167.444 0 1.13687e-013 0 -89.1268 2.06624 -90.3297 -7.25225 -1.74978 -1.45535e-011 -59.2044 -6.63087 174.661 15.788 6.82121e-013 -0.000510216 -16.1892 5.17763 7.41526 16.0015 3.8147e-006 -0.000591278 -29.925 -6.47007 13.4834 16.1689 3.8147e-006 -0.000581741 -12.0118 -7.69084 26.4548 6.30482 2.93745 -0.0779348 -3.67929 -0.904515 0.22789 6.12662 8.45826 -4.3621e-011 -88.9849 -0.101547 178.991 -6.08292 -3.25151 -5.42618 -109.955 1.55371 177.423 13.6591 -1.90735e-006 -4.76837e-007 -63.9199 4.7652e-006 8.86983e-006 9.07515 1.90735e-006 5.32907e-015 52.3501 6.04331e-006 -7.74883e-006 8.13855 -1.06581e-014 4.76837e-007 -12.2091 0.364175 2.99517 3.79737 6.30086 4.76796e-007 89.5779 0.00357011 2.63023e-005 0.838767 -1.49012e-008 -4.76837e-007 3.87243e-008 2.75101e-012 4.53384e-011 -6.12689 -3.42373 5.42689 -88.3682 15.8907 -178.264 13.6591 -1.06581e-014 1.77636e-015 -54.5596 6.81964e-006 9.56405e-006 9.07516 -2.17781e-012 0.000555992 51.8831 6.21386e-006 -7.97382e-006 8.13856 -7.53175e-013 0.00077343 0.293122 -14.3416 -0.980563 3.79775 6.30061 -9.53761e-010 89.7014 0.000920395 -30.2816 0.83877 -2.98023e-008 4.76837e-007 179.961 0.00580942 -0.000161999 12.1713 -0.0104256 5.07991e-006 10.985 0.140694 -0.563926 -0.157495 5.09008 -6.54008 -91.9247 0.295276 -168.228 -0.1575 5.09007 6.54 87.5788 0.209863 12.7005 8.2971 8.50413 2.83642e-011 -92.0551 -0.0443211 179.086 13.2796 -0.0099659 2.53991e-006 -9.36811 -1.7169 0.749409 12.4881 -6.66636 -5.08023e-006 -28.7567 -0.026136 -0.01031 -5.627 -5.64193 -1.17924 -151.304 -51.3796 102.646 13.2557 1.90735e-006 -7.10543e-015 47.0081 47.0932 -106.107 12.8897 9.53674e-007 1.19209e-007 -30.8326 -1.49214e-005 -8.33948e-006 11.2622 2.86102e-006 -2.38419e-007 -115.549 75.5932 98.0696 3.98015 -0.208661 -0.0949784 -3.13094 0.765052 -72.2373 6.57561 1.04361e-014 -8.88179e-015 179.96 1.72882e-005 1.73668e-005 -5.62653 -5.64302 1.1766 -151.306 49.0459 -103.145 13.2558 0 -7.10543e-015 58.3011 -56.8543 115.908 12.8897 -2.86102e-006 2.38419e-007 -43.6285 2.94239e-006 3.01899e-006 11.2622 1.42108e-014 -1.06581e-014 -122.301 -80.0658 -120.195 3.98015 -0.208658 0.0949745 -12.3295 0.661861 66.0308 6.57562 -4.76837e-007 -9.76996e-015 -3.33977e-007 -8.33468e-009 -2.0324e-008 4.19291 -0.0032177 2.54014e-006 -5.17641 0.0174713 0.000797277 4.17603 0.298258 1.61438e-010 60.0687 1.38444 0.628733 6.53258 -3.90694 -2.55361 133.025 18.1402 163.594 6.5326 -3.90695 2.55371 -46.976 18.1111 -16.4186 1.75934 -4.15839 -4.45634 24.8292 -40.0142 145.015 1.75933 -4.1584 4.45617 -155.157 -40.0151 -34.8891 11.2964 -1.06184 2.32054 151.29 -7.71041 -90.0003 11.2964 -1.06182 -2.32035 -28.885 -10.5091 88.089 1.31489 1.30001 -3.14193e-012 -174.406 -0.0383606 -179.998 12.6869 3.8147e-006 3.33067e-016 -2.57073e-007 3.365e-009 -1.28824e-009 
